<?xml version="1.0" encoding="UTF-8" standalone="no"?>
<!-- Created with Inkscape (http://www.inkscape.org/) -->

<svg
   width="1000mm"
   height="1000mm"
   viewBox="0 0 1000 1000"
   version="1.1"
   id="svg1"
   xml:space="preserve"
   inkscape:version="1.4.2 (ebf0e940, 2025-05-08)"
   sodipodi:docname="gald-logo-only.svg"
   xmlns:inkscape="http://www.inkscape.org/namespaces/inkscape"
   xmlns:sodipodi="http://sodipodi.sourceforge.net/DTD/sodipodi-0.dtd"
   xmlns="http://www.w3.org/2000/svg"
   xmlns:svg="http://www.w3.org/2000/svg"><sodipodi:namedview
     id="namedview1"
     pagecolor="#ffffff"
     bordercolor="#000000"
     borderopacity="0.25"
     inkscape:showpageshadow="2"
     inkscape:pageopacity="0.0"
     inkscape:pagecheckerboard="0"
     inkscape:deskcolor="#d1d1d1"
     inkscape:document-units="mm"
     inkscape:zoom="0.26205012"
     inkscape:cx="1593.2067"
     inkscape:cy="1911.848"
     inkscape:window-width="2192"
     inkscape:window-height="1353"
     inkscape:window-x="8"
     inkscape:window-y="33"
     inkscape:window-maximized="0"
     inkscape:current-layer="layer1" /><defs
     id="defs1" /><g
     inkscape:label="Layer 1"
     inkscape:groupmode="layer"
     id="layer1"><path
       id="path35"
       style="fill:#f2f2f2;stroke-width:1"
       d="m 459.415,129.36279 c -0.23219,1e-4 -0.43194,7.68788 -0.44376,17.08398 -0.0157,13.46287 -0.21576,18.46606 -0.94348,23.6046 -3.14685,22.2205 -8.09217,38.97051 -16.49526,55.87242 -7.86235,15.81423 -14.99803,25.37675 -30.74223,41.19596 -12.49658,12.55613 -17.35907,17.02355 -53.93449,49.55047 -35.76061,31.80229 -44.27645,39.73953 -65.93929,61.46486 -18.70128,18.75521 -28.43593,29.35634 -38.85093,42.30752 -20.30125,25.24482 -33.2799,48.14875 -38.52115,67.98035 -2.47314,9.35785 -3.03304,14.03167 -3.0096,25.13388 0.0244,11.60287 0.66599,19.36066 2.50477,30.30757 11.62917,69.2327 63.96052,123.88266 131.57019,137.40035 6.57632,1.31487 10.16151,1.81962 20.0626,2.82221 3.61341,0.36591 26.34688,-0.15516 31.78748,-0.72848 13.86408,-1.46091 30.93127,-5.11636 44.03349,-9.43042 25.15709,-8.28326 51.15152,-22.82112 69.30715,-38.76195 2.14955,-1.88734 4.09628,-3.43777 4.3266,-3.44369 0.2303,-0.006 3.20449,1.52175 6.60848,3.39582 23.45081,12.91073 55.2285,23.82757 84.28999,28.95657 16.8157,2.96774 41.56589,4.39341 54.85356,3.16046 43.09778,-3.99892 90.05011,-39.12244 113.03834,-84.56001 13.54292,-26.7682 18.44665,-54.12654 15.47442,-86.33283 C 783.64451,444.90111 771.60346,402.12017 750.05595,360.13311 707.48168,277.17426 628.47251,207.93686 514.14543,153.40142 494.85629,144.20025 461.07329,129.36212 459.415,129.36279 Z m 13.53146,24.75078 c 1.30759,-0.5023 34.68997,20.07053 58.47995,36.0396 42.2246,28.34338 72.19755,52.72735 101.36027,82.46018 27.65681,28.1975 48.76163,57.08914 66.83291,91.49122 13.90866,26.47757 27.67922,63.50363 35.6001,95.72045 10.47912,42.62246 3.2251,89.14961 -19.07635,122.35099 -13.9189,20.72199 -32.06532,33.88647 -52.57882,38.1435 -6.54418,1.35807 -23.66,1.87931 -31.96967,0.97402 -11.31419,-1.23259 -30.49054,-5.41992 -32.07247,-7.00354 -0.57294,-0.57349 0.0727,-1.2864 3.79431,-4.19559 19.90472,-15.5589 32.98043,-34.69249 37.32424,-54.61518 3.01418,-13.8257 2.05673,-29.12233 -2.72767,-43.56579 -3.53965,-10.68553 -11.61084,-24.89208 -20.55214,-36.17611 -5.32267,-6.71728 -20.44538,-21.57428 -28.35248,-27.85419 -12.45692,-9.89349 -24.33024,-17.3557 -38.56185,-24.23525 -18.08777,-8.74362 -32.17997,-12.2222 -44.55053,-10.99742 -24.6744,2.44299 -53.65754,18.73709 -78.46008,44.11089 -8.91069,9.11588 -14.88764,16.47614 -21.55265,26.53988 -21.82454,32.95375 -27.15074,57.15661 -19.04072,86.5274 5.43207,19.67249 18.70915,41.48581 36.57209,60.08636 3.40109,3.54154 5.58261,6.20452 5.30471,6.47577 -0.79983,0.78067 -7.25963,3.0367 -14.18897,4.95568 -8.00983,2.21819 -17.06097,3.8046 -23.91694,4.19151 -2.80354,0.15832 -6.26955,0.35977 -7.7026,0.4483 -4.33237,0.2678 -18.75731,-0.59329 -24.93779,-1.48853 -41.16074,-5.96197 -70.78549,-26.44587 -87.40339,-60.4348 -9.26263,-18.94512 -13.71242,-38.20229 -15.13854,-65.52191 -1.19334,-22.86058 1.40414,-35.99807 10.98904,-55.58407 10.136,-20.71205 26.92127,-42.98218 51.08368,-67.77659 21.55566,-22.11944 32.7711,-32.42227 82.08239,-75.40774 39.28864,-34.24853 48.39207,-44.24524 58.26011,-63.97325 7.37445,-14.74286 12.25422,-31.39543 14.73244,-50.27589 1.60332,-12.21448 1.5286,-43.27197 -0.12014,-49.94276 -0.1877,-0.75936 -0.0158,-1.27353 0.48752,-1.46714 z m 36.84793,286.73037 c 7.20838,-0.15319 15.84726,0.4956 21.89257,1.75852 17.38868,3.63264 37.13971,12.52991 51.53761,23.21641 19.69556,14.61857 32.21133,33.12321 35.74566,52.84951 1.31663,7.34847 0.89616,17.65185 -0.98318,24.10077 -1.82379,6.25834 -6.33304,15.31698 -10.2725,20.63566 -8.35024,11.27364 -20.65827,21.74169 -36.96701,31.44053 -4.96362,2.95185 -6.23088,3.44295 -6.23088,2.41262 0,-0.30005 1.05768,-2.72337 2.35107,-5.38459 3.74586,-7.70811 5.08708,-13.67038 5.12253,-22.76098 0.0232,-6.04286 -0.19361,-8.45555 -1.07783,-11.99792 -6.27809,-25.15079 -29.04738,-43.24284 -57.74612,-45.88263 -33.92856,-3.12084 -64.77352,17.7346 -70.87148,47.91829 -0.68579,3.39428 -0.82531,6.04175 -0.61881,11.73708 0.27944,7.70643 1.16815,12.11074 3.69658,18.3066 0.70205,1.72032 1.14214,3.34665 0.97709,3.61385 -0.37866,0.61334 -9.65701,-8.96524 -14.36402,-14.82929 -11.13873,-13.87674 -18.14559,-27.31106 -20.69565,-39.67788 -1.4349,-6.95871 -1.21303,-16.34091 0.53026,-22.39623 2.24378,-7.79372 9.33347,-20.74628 16.70289,-30.51542 18.07907,-23.96629 46.33697,-40.65809 74.68818,-44.11801 1.93582,-0.23623 4.18024,-0.37586 6.58304,-0.42689 z M 621.08825,713.8525 c -15.80988,0.98936 -32.26525,9.08536 -44.96579,22.38401 -25.24153,26.43061 -37.39817,72.42052 -29.55343,111.8029 0.69731,3.50081 1.75015,7.6559 2.33989,9.2338 1.93577,5.17921 7.37307,10.05234 12.96557,11.62093 4.51043,1.26517 9.59723,-0.0942 12.96455,-3.46508 0.87112,-0.87199 3.0317,-4.14076 4.80192,-7.26335 9.59755,-16.92866 22.40534,-28.03724 35.78637,-31.03909 4.33002,-0.97138 12.40827,-1.10172 16.41687,-0.2649 7.44799,1.55479 14.0045,6.69076 18.11354,14.18945 2.27147,4.1451 3.36428,5.24075 5.83802,5.84918 2.97045,0.73059 6.68888,-2.3997 6.68888,-5.63116 0,-1.65816 -2.03477,-7.55644 -4.30013,-12.46454 -4.52993,-9.81476 -12.01423,-18.39512 -19.14966,-21.95406 -5.73489,-2.86046 -9.63386,-3.69312 -15.89068,-3.3948 -10.88957,0.51916 -20.40493,5.53197 -31.12491,16.3973 -6.02166,6.10341 -9.32282,10.28824 -15.77364,19.99482 -7.19472,10.82538 -9.12955,12.56128 -11.43075,10.25772 -1.28197,-1.28322 -3.17488,-8.23611 -4.71033,-17.29998 -7.8719,-46.47045 9.44988,-82.16646 44.30219,-91.29661 4.30619,-1.1281 6.99692,-1.43387 15.8683,-1.80132 8.69687,-0.3602 11.36077,-0.6558 14.33044,-1.59144 8.39908,-2.64622 13.45984,-7.56862 13.47954,-13.11048 0.0219,-6.16818 -7.39173,-10.24154 -20.27328,-11.13699 -2.21939,-0.15438 -4.46494,-0.15773 -6.72348,-0.0158 z m -205.42276,0.0448 c -6.55411,-0.28659 -13.09754,0.68982 -19.98729,2.91388 -30.75115,9.92671 -51.08483,46.09498 -57.14663,101.6491 -1.20983,11.08752 -1.37206,40.56439 -0.24428,44.44914 0.76321,2.62899 3.6993,6.48217 5.49097,7.2073 3.48537,1.41065 9.09762,-0.1735 11.39307,-3.2165 2.50121,-3.31563 2.71727,-5.26853 1.23256,-11.14207 -1.86529,-7.37917 -3.28458,-15.66509 -4.01315,-23.42223 -0.85952,-9.15137 -0.37531,-24.87698 1.00559,-32.65498 6.75903,-38.07051 29.82403,-59.98956 63.12612,-59.98956 27.56046,0 48.75919,15.40099 57.54765,41.80727 3.17542,9.54107 3.99209,14.61262 4.31033,26.79356 0.32481,12.43273 -0.39952,20.17854 -2.975,31.83482 -1.80664,8.17659 -2.2038,9.29267 -3.67319,10.32294 -2.35905,1.65406 -3.84776,0.20643 -11.17631,-10.86292 -13.90923,-21.00908 -26.66026,-32.10808 -40.76945,-35.4884 -4.99588,-1.19693 -13.08238,-0.83625 -17.71048,0.7896 -6.47036,2.27304 -13.64449,8.14877 -18.26009,14.95664 -4.6859,6.91154 -9.8348,19.35642 -9.26695,22.39726 0.53205,2.84907 4.16892,5.24149 6.96472,4.58074 2.09036,-0.49404 3.60866,-2.13306 5.73217,-6.18847 3.6618,-6.99327 10.4229,-12.25208 17.70743,-13.77274 3.79413,-0.79197 12.16657,-0.70835 16.27236,0.16305 13.57899,2.8818 27.07962,14.67951 36.62502,32.00599 2.99397,5.43455 5.02659,7.70803 8.1769,9.1431 5.7708,2.62882 12.7933,0.63135 18.22752,-5.18388 3.43192,-3.67257 4.2539,-5.67771 6.17389,-15.05648 1.60005,-7.81589 2.17488,-14.33902 2.17094,-24.62752 -0.0118,-24.36405 -5.75912,-46.89362 -17.11407,-67.0848 -10.02391,-17.8244 -24.30541,-31.34803 -39.77099,-37.65955 -6.93058,-2.82835 -13.49528,-4.37768 -20.04936,-4.66425 z m -165.39835,0.60518 c -18.81342,0.70624 -38.713,3.66147 -54.63882,8.29341 -35.92956,10.44993 -57.83558,28.71167 -64.5215,53.78784 -1.18159,4.43165 -1.36602,6.19462 -1.40659,13.44672 -0.0299,5.32675 0.20418,9.38437 0.64731,11.21543 5.75804,23.7937 21.64392,42.00623 47.76877,54.76494 14.99305,7.32221 31.70021,11.92358 49.24454,13.56184 6.01913,0.56206 21.55349,0.27585 27.61864,-0.50841 6.88284,-0.88999 16.13855,-3.06376 19.113,-4.48902 5.67867,-2.721 10.59006,-9.99704 10.59006,-15.68817 0,-5.92402 -2.72367,-9.65686 -10.06183,-13.79311 -19.52119,-11.00332 -30.46288,-24.25341 -32.67704,-39.5699 -1.99768,-13.81897 2.89841,-24.94604 13.54877,-30.79355 5.05515,-2.77551 6.78251,-4.63572 6.78251,-7.30308 0,-1.79611 -0.31949,-2.51034 -1.77195,-3.96432 -2.40419,-2.40668 -4.50474,-2.35031 -11.36154,0.30362 -16.85927,6.52543 -27.15287,16.76673 -29.91274,29.76146 -2.53946,11.95685 2.94152,25.47822 15.42761,38.05894 6.02136,6.067 11.41803,10.31251 21.40608,16.84251 13.67011,8.93729 13.74182,11.01641 0.48039,13.91131 -12.85951,2.80714 -18.0623,3.38696 -29.96361,3.34181 -12.59977,-0.0477 -19.67376,-1.05069 -28.68529,-4.06927 -11.18135,-3.74542 -18.90289,-8.37379 -26.04106,-15.6087 -4.92953,-4.99635 -7.68151,-8.76529 -10.52595,-14.41461 -5.08769,-10.10462 -7.38657,-23.95497 -5.91639,-35.64733 3.8454,-30.58211 26.31639,-50.58435 62.88594,-55.97634 4.5035,-0.66401 9.26135,-0.90299 17.40209,-0.87519 12.38858,0.0424 21.05519,1.03286 31.80785,3.63626 7.93382,1.92091 11.10948,1.933 13.94774,0.0521 2.89854,-1.92098 4.27062,-4.71607 4.27062,-8.69889 0,-2.79029 -0.18514,-3.34268 -1.69358,-5.06266 -2.89075,-3.29585 -5.15125,-3.94474 -15.49986,-4.4503 -5.84227,-0.2854 -11.99303,-0.30062 -18.26417,-0.0653 z m 499.26364,0 c -6.27114,-0.23541 -12.42189,-0.22019 -18.26416,0.0653 -10.34853,0.50555 -12.60816,1.15444 -15.49885,4.4503 -1.50847,1.71997 -1.6936,2.27236 -1.6936,5.06265 0,3.98282 1.37207,6.77791 4.27064,8.69889 2.8381,1.88103 6.01406,1.86894 13.94774,-0.0521 10.75268,-2.6034 19.41925,-3.59387 31.80783,-3.63626 22.57107,-0.0771 38.77734,4.14303 54.19506,14.11304 5.66596,3.66405 14.06798,12.09993 17.38685,17.45586 12.37046,19.96422 12.18363,47.07294 -0.45902,66.48879 -9.25229,14.20911 -24.92666,23.77356 -44.85994,27.37328 -4.97702,0.89878 -8.35946,1.12715 -17.14359,1.16047 -11.90131,0.0452 -17.10412,-0.53467 -29.96361,-3.34181 -13.26148,-2.8949 -13.18977,-4.97401 0.48039,-13.91131 9.78623,-6.39806 15.3181,-10.72928 21.18318,-16.58678 26.11979,-26.08641 20.11011,-54.77221 -14.26223,-68.07613 -6.85674,-2.65393 -8.95733,-2.7103 -11.36155,-0.30362 -1.41905,1.42064 -1.77197,2.18528 -1.77197,3.84206 0,2.68851 1.34073,4.35886 5.11337,6.37185 7.43598,3.96746 12.08545,9.30308 14.30905,16.42071 0.92706,2.97008 1.13901,4.8712 1.11143,9.93273 -0.0412,7.29078 -0.87682,11.0318 -3.84825,17.2144 -4.98982,10.38238 -16.19755,20.96616 -30.32187,28.63359 -7.78952,4.22822 -10.51869,10.73299 -7.68531,18.31374 1.40546,3.7605 5.87698,8.64506 9.50407,10.38305 4.3769,2.09725 13.88895,3.96452 26.4085,5.18389 11.12335,1.0834 29.88478,-0.69528 43.25182,-4.10086 23.15189,-5.89847 41.54552,-16.0345 55.53652,-30.60201 13.31386,-13.86252 20.06576,-30.2124 19.34708,-46.85157 -1.31171,-30.36441 -24.49854,-53.3148 -66.08076,-65.40879 -15.92577,-4.63194 -35.82539,-7.58717 -54.63882,-8.29341 z" /></g></svg>
