<?xml version="1.0" encoding="UTF-8" standalone="no"?>
<!-- Created with Inkscape (http://www.inkscape.org/) -->

<svg
   width="1000mm"
   height="1000mm"
   viewBox="0 0 1000 1000"
   version="1.1"
   id="svg1"
   xml:space="preserve"
   inkscape:version="1.4.2 (ebf0e940, 2025-05-08)"
   sodipodi:docname="gald-logo.svg"
   xmlns:inkscape="http://www.inkscape.org/namespaces/inkscape"
   xmlns:sodipodi="http://sodipodi.sourceforge.net/DTD/sodipodi-0.dtd"
   xmlns="http://www.w3.org/2000/svg"
   xmlns:svg="http://www.w3.org/2000/svg"><sodipodi:namedview
     id="namedview1"
     pagecolor="#ffffff"
     bordercolor="#000000"
     borderopacity="0.25"
     inkscape:showpageshadow="2"
     inkscape:pageopacity="0.0"
     inkscape:pagecheckerboard="0"
     inkscape:deskcolor="#d1d1d1"
     inkscape:document-units="mm"
     inkscape:zoom="0.26205012"
     inkscape:cx="1810.7223"
     inkscape:cy="1965.2729"
     inkscape:window-width="2192"
     inkscape:window-height="1353"
     inkscape:window-x="8"
     inkscape:window-y="33"
     inkscape:window-maximized="0"
     inkscape:current-layer="layer1" /><defs
     id="defs1" /><g
     inkscape:label="Layer 1"
     inkscape:groupmode="layer"
     id="layer1"><g
       id="g37"
       transform="matrix(1.9695358,0,0,1.9715845,-474.40033,-509.87666)"
       style="stroke-width:0.50747"><path
         id="path16"
         style="fill:#000000;stroke-width:0.50747"
         d="m 278.96747,613.94806 v 37.9677 37.96771 h -18.38854 -18.38855 v 3.04271 3.04271 h 12.03855 12.03854 l -0.005,2.05052 c -0.006,2.53557 -0.57883,6.93991 -1.29294,9.94668 -2.42074,10.19262 -9.28673,17.09652 -21.78524,21.90564 -1.27235,0.48957 -2.31414,0.98827 -2.3151,1.10846 -9.6e-4,0.1202 0.51269,0.8941 1.14153,1.71979 0.62885,0.8257 1.52564,2.06373 1.99264,2.75125 l 0.84905,1.25006 1.51308,-0.54674 c 2.79585,-1.01027 8.42339,-3.85588 10.79934,-5.46065 5.71249,-3.85835 9.7371,-8.49411 12.09281,-13.9299 2.0097,-4.63736 3.62322,-12.9246 3.62406,-18.6123 l 5.2e-4,-2.18281 h 8.06979 8.06979 v 14.26838 c 0,14.88586 0.14282,17.40425 1.11725,19.67425 0.75106,1.74966 2.50842,3.22921 4.6762,3.93671 1.57319,0.51344 2.47985,0.582 9.10435,0.68781 10.77889,0.17218 13.86943,-0.29618 16.28221,-2.46548 1.70656,-1.53434 2.2465,-2.95311 2.93367,-7.71477 0.67675,-4.68943 1.11964,-9.11644 0.93121,-9.30486 -0.23951,-0.23952 -6.57281,-2.39821 -6.69054,-2.28048 -0.0593,0.0593 -0.21047,1.69077 -0.3359,3.62562 -0.58916,9.08897 -0.95482,10.38292 -3.27215,11.57345 -1.30726,0.67171 -1.35609,0.67541 -7.94525,0.67541 -7.75832,0 -8.4425,-0.1536 -9.38754,-2.10581 -0.51658,-1.06721 -0.53434,-1.59561 -0.53434,-15.83676 v -14.73347 h 13.62604 13.62604 v -3.04271 -3.04271 h -18.78541 -18.78542 v -37.96771 -37.9677 h -3.30729 z m 438.15,41.275 v 14.2875 14.2875 H 705.74038 694.3633 v 2.91041 2.91042 h 11.37708 11.37709 v 38.1 38.1 h 3.57187 3.57188 v -38.1 -38.1 h 12.17083 12.17083 v -2.91042 -2.91041 h -12.17083 -12.17083 v -14.2875 -14.2875 h -3.57188 z m -42.2336,0.95032 -2.53886,2.22829 -2.53835,2.22829 2.15801,2.26963 c 2.6008,2.73498 6.34071,7.06119 8.50801,9.84178 0.8731,1.12019 1.63117,2.04197 1.68517,2.04897 0.0538,0.007 1.39206,-1.07574 2.97346,-2.40503 l 2.87476,-2.4169 -3.16002,-3.33778 c -1.738,-1.83579 -4.69004,-4.93984 -6.56084,-6.89777 z m -271.37827,0.88471 -1.48104,0.14676 c -7.05657,0.69933 -37.35186,1.78866 -59.75553,2.1487 -8.85676,0.14233 -11.17865,0.25056 -11.17865,0.5209 0,0.30515 0.57248,3.26628 0.92863,4.80229 0.13538,0.58386 0.19322,0.59066 5.61154,0.66146 l 5.47461,0.0713 -1.81436,1.19063 c -0.99784,0.65485 -1.93598,1.27016 -2.08515,1.36736 -0.15686,0.10224 0.50692,1.10632 1.57458,2.38125 1.01534,1.21246 2.58983,3.18678 3.4985,4.38733 l 1.65209,2.18281 h -7.94938 -7.94939 v 6.35 6.35 h 3.175 3.175 v -3.43958 -3.43959 h 31.08854 31.08854 v 3.44785 3.44785 l 3.24115,-0.0744 3.24115,-0.0744 0.0708,-6.28386 0.0708,-6.28385 h -7.42435 -7.42436 l 1.43351,-1.78594 c 1.9152,-2.38562 5.73298,-7.67131 5.73298,-7.9375 0,-0.21319 -5.4114,-3.24114 -5.79241,-3.24114 -0.11179,0 -1.12313,1.42284 -2.24741,3.16208 -1.12428,1.73924 -2.75032,4.08305 -3.61321,5.20846 l -1.5689,2.04639 1.20509,0.8568 c 0.66263,0.47111 1.46422,1.038 1.78181,1.25987 0.51963,0.36297 -1.47492,0.40468 -19.92747,0.41548 l -20.50521,0.0119 2.30994,-1.5198 c 1.27053,-0.83569 2.3121,-1.59677 2.3151,-1.69137 0.008,-0.28026 -3.20482,-4.16603 -5.27254,-6.37636 -1.05502,-1.12779 -1.87705,-2.06949 -1.82625,-2.09289 0.14717,-0.0679 20.72099,-0.65797 20.81269,-0.59687 0.0455,0.0303 -0.82076,0.56911 -1.92495,1.19735 -1.1042,0.62824 -1.95958,1.26559 -1.90118,1.41645 0.0584,0.15087 0.88342,1.31662 1.83348,2.59002 0.95007,1.2734 2.36359,3.32093 3.14141,4.55063 0.77782,1.2297 1.50352,2.24196 1.61231,2.24896 0.23263,0.0153 4.97986,-2.57982 5.33921,-2.91869 0.28131,-0.26528 -1.24167,-2.55942 -4.33411,-6.52828 l -2.07119,-2.65772 4.00596,-0.16588 c 2.20319,-0.0912 8.58986,-0.34275 14.19241,-0.55863 17.94213,-0.69134 18.74913,-0.73009 19.06034,-0.92242 0.22826,-0.14107 0.18821,-0.90645 -0.1571,-3.01067 z m 189.72486,0.54622 c -0.2211,0 -2.63029,1.98063 -4.54029,3.73258 -0.4863,0.44602 -0.42509,0.54263 2.03501,3.19257 2.2963,2.4735 7.7471,8.94748 8.4708,10.06089 0.3372,0.51881 0.0565,0.69223 3.4892,-2.14974 1.3097,-1.08429 2.42168,-1.99969 2.47168,-2.03399 0.0498,-0.0343 -0.0141,-0.24913 -0.14159,-0.47697 -0.395,-0.7058 -11.50491,-12.32534 -11.78481,-12.32534 z m -144.13591,1.32291 v 2.64584 2.64583 h 5.02708 5.02709 l -0.002,1.52135 c -0.002,1.75312 -0.76391,5.16349 -1.57665,7.05797 -1.55688,3.62917 -5.22209,7.62132 -9.4666,10.311 l -2.44636,1.54977 1.5875,1.69706 c 0.87294,0.93317 1.77874,1.98966 2.01331,2.34766 0.23457,0.358 0.54815,0.65061 0.69711,0.65061 0.63294,0 4.99892,-3.19308 7.03162,-5.14284 4.86132,-4.66294 7.55139,-10.41817 8.17056,-17.47904 l 0.20877,-2.38125 8.6651,-0.0698 8.66511,-0.0698 -0.004,2.31873 c -0.002,1.2753 -0.11627,3.66827 -0.2527,5.3175 -0.40348,4.8775 -1.53019,6.13964 -5.66942,6.34845 -1.89378,0.0955 -7.69523,-0.3106 -9.44955,-0.66146 l -0.70642,-0.14159 0.46922,2.34249 c 0.25825,1.28834 0.54497,2.7707 0.63717,3.29386 l 0.16795,0.95136 5.22087,0.17415 c 7.75181,0.25898 10.16898,-0.32169 12.60285,-3.02876 2.08365,-2.31752 2.59056,-4.37932 3.05098,-12.40957 0.15436,-2.69214 0.34826,-5.99612 0.43046,-7.34219 l 0.14935,-2.4474 H 469.2189 Z m 88.36825,0 v 15.67656 c -0.003,21.13893 -0.39577,28.14534 -1.96887,35.15755 -1.551,6.91351 -5.07358,12.80797 -11.53728,19.30631 l -3.05821,3.07423 1.74408,1.48725 c 0.9589,0.81781 2.14965,1.90599 2.64635,2.41846 h -0.003 c 0.4967,0.51247 0.98641,0.93173 1.08831,0.93173 0.2613,0 3.92544,-3.92838 5.76554,-6.18102 5.363,-6.56563 8.98341,-14.15739 10.20661,-21.40438 l 0.16795,-0.99477 12.35635,0.0687 12.35687,0.0687 0.0713,8.06979 c 0.0431,4.92267 -0.0385,8.59489 -0.20877,9.41648 -0.3444,1.66225 -1.47862,2.84071 -3.16932,3.2923 -1.1613,0.31017 -6.28091,0.23614 -12.60491,-0.1819 l -2.41897,-0.15968 0.48162,2.4815 c 0.2647,1.36484 0.5544,2.92798 0.6444,3.47369 l 0.1633,0.99219 h 8.27443 c 9.1113,0 10.00328,-0.11726 12.02718,-1.58336 1.3226,-0.95814 2.23964,-2.34649 2.80344,-4.24471 0.3731,-1.2569 0.4191,-5.23256 0.4191,-36.28874 v -34.87694 h -18.12396 z m 79.96308,0 -0.11111,6.01927 c -0.106,5.73542 -0.14539,6.11892 -0.84129,8.13336 -0.4017,1.16276 -1.13927,2.78774 -1.63917,3.61063 -1.6102,2.65073 -4.80508,5.58206 -8.18038,7.506 -0.7276,0.41475 -1.36817,0.78811 -1.42317,0.82941 -0.0551,0.0413 0.95696,1.20535 2.24896,2.58692 h 0.004 c 1.292,1.38158 2.39288,2.51736 2.44688,2.52336 0.29,0.0349 3.52923,-2.12293 5.16093,-3.43803 5.5586,-4.47998 8.61841,-11.16299 8.62841,-18.84123 v -2.84427 h 10.45104 10.45104 v 7.11584 c 0,6.35582 0.056,7.29797 0.52607,8.82014 0.5869,1.90005 1.69063,3.24032 3.34553,4.06176 0.9148,0.45408 1.75297,0.51643 7.93027,0.58963 l 6.90707,0.0816 0.17725,-1.80144 c 0.0976,-0.99093 0.24786,-2.36031 0.33486,-3.04322 l 0.15762,-1.24179 -5.56142,-0.0816 c -7.9652,-0.1164 -7.46725,0.66465 -7.46725,-11.71401 v -8.87233 h -16.77261 z m -200.87508,0.26459 v 27.38437 27.38438 h 3.04271 3.04271 v -1.85209 -1.85208 h 7.27604 7.27604 v 1.5875 1.5875 h 3.04271 3.04271 V 686.3116 659.19181 h -13.36146 z m 110.86042,2.37659 -13.03073,0.0682 -13.03073,0.0687 -0.0672,31.15468 -0.0672,31.15469 h 3.17603 3.17604 v -3.04271 -3.0427 h 9.92187 9.92188 v -28.1802 z m -274.17448,0.0233 c -0.23422,-0.0219 -4.96094,3.67821 -4.96094,3.88348 0,0.0772 0.63435,0.86774 1.40973,1.757 2.2289,2.55626 7.72598,9.48665 10.7611,13.56661 1.52797,2.05396 2.88971,3.66732 3.02618,3.58532 0.81054,-0.48727 5.70446,-4.3537 5.70146,-4.50464 -0.007,-0.41197 -15.55468,-18.25197 -15.93753,-18.28777 z m 58.19903,0.1142 c -0.23377,-0.006 -1.12057,0.92579 -2.1332,2.24638 -2.8447,3.70981 -6.84255,8.25474 -11.05979,12.57287 l -3.87935,3.97185 2.54196,2.18747 2.54197,2.18798 2.74556,-2.71973 c 4.72786,-4.68396 14.87455,-15.82367 14.87455,-16.33027 0,-0.23594 -4.99352,-3.89588 -5.61155,-4.11293 -0.006,-0.002 -0.0126,-0.003 -0.0202,-0.004 z m 111.20045,3.03393 7.20989,0.0703 7.2099,0.0703 v 8.33437 8.33438 l -7.2099,0.0703 -7.20989,0.0708 v -8.47545 z m 121.17916,0.53743 h 11.77758 11.77809 l -0.0698,7.73906 -0.0703,7.73907 -11.52901,0.0687 c -6.3408,0.0379 -11.60881,-0.0116 -11.70781,-0.11007 -0.0981,-0.0985 -0.17881,-3.61195 -0.17881,-7.8078 z m -36.24791,2.38125 h 6.74687 6.74688 v 9.525 9.525 h -6.74688 -6.74687 v -9.525 z m 74.34791,15.08125 v 2.90525 2.90473 l 5.22553,0.0713 5.22552,0.0718 v 15.875 c 0,17.684 0.0273,17.38369 -1.84227,19.99361 l -0.86558,1.20871 1.97146,2.69906 1.97094,2.69958 1.63194,-1.28468 c 2.0182,-1.58921 7.69621,-5.5951 12.04681,-8.49922 l 3.27215,-2.18385 -0.15348,-1.23145 c -0.0844,-0.67705 -0.23376,-2.27272 -0.33176,-3.54603 -0.098,-1.27331 -0.21979,-2.31511 -0.27079,-2.31511 -0.0509,0 -2.46364,1.60735 -5.36194,3.57188 -2.8982,1.96453 -5.40027,3.57187 -5.55987,3.57187 -0.2081,0 -0.28991,-5.19116 -0.28991,-18.25625 v -18.25625 h -8.33437 z m 102.91982,0.78703 -9.19272,0.0698 -9.1922,0.0692 -0.0755,2.97657 -0.0749,2.97656 h 5.96191 5.96191 v 16.76487 c 0,10.23421 -0.10482,17.31644 -0.26872,18.1808 -0.3194,1.68372 -1.09096,3.36034 -1.99626,4.3372 l -0.65629,0.70849 1.9234,2.7497 10e-4,-5.2e-4 c 1.058,1.51223 2.05132,2.70595 2.20762,2.65255 0.1564,-0.0534 1.52561,-0.96615 3.04271,-2.0283 3.1022,-2.17182 10.95831,-7.33031 15.67191,-10.29084 2.6114,-1.64015 3.10256,-2.0512 2.99206,-2.50321 -0.0727,-0.29739 -0.21549,-1.87999 -0.31729,-3.5171 -0.1017,-1.63711 -0.22864,-2.97656 -0.28164,-2.97656 -0.0532,0 -2.50719,1.53228 -5.45289,3.40496 -2.9457,1.87269 -6.4273,4.07033 -7.737,4.88394 l -2.38125,1.4795 -0.0677,-19.96881 z m -329.60675,1.32964 -0.85577,2.55643 c -0.47073,1.4061 -1.0218,2.95391 -1.22473,3.43958 l -0.36897,0.88316 h -12.4318 -12.4318 v 2.91041 2.91042 h 11.13576 11.13627 l -1.37821,2.57969 c -4.80482,8.99449 -12.15965,17.3591 -20.96306,23.8404 l -2.31821,1.70636 0.66766,1.08417 c 0.36716,0.59625 1.15549,1.95157 1.75183,3.0117 l 1.08418,1.92753 0.96324,-0.71468 c 6.61118,-4.9074 12.48072,-10.71169 17.45475,-17.25993 l 2.2841,-3.00705 0.92656,1.15497 c 3.06382,3.81984 7.75675,8.0581 12.04784,10.88047 1.30969,0.86141 2.42124,1.60554 2.47014,1.65364 0.15081,0.14847 -6.27119,2.16869 -10.02368,3.1533 -4.03576,1.05894 -11.40678,2.55027 -15.72979,3.18223 -1.60073,0.234 -3.29499,0.48629 -3.76514,0.56069 l -0.85473,0.1354 1.27175,1.77508 c 0.69974,0.9762 1.54065,2.22106 1.86862,2.76676 0.32797,0.5457 0.73876,0.99219 0.91261,0.99219 1.69191,0 15.27226,-2.82564 19.74918,-4.10931 2.9754,-0.85314 8.91664,-2.86474 11.33006,-3.83595 l 2.49235,-1.00304 2.03347,0.87024 c 2.8661,1.22674 9.60679,3.39091 13.51287,4.33823 6.1607,1.49412 16.5443,3.18632 16.94832,2.76211 0.34655,-0.36387 3.68918,-6.22129 3.68918,-6.46472 0,-0.12667 -0.56555,-0.23039 -1.25677,-0.23048 -3.34912,-4.4e-4 -14.98874,-1.67155 -19.51302,-2.80138 -3.48463,-0.87021 -7.53994,-2.05562 -7.53494,-2.20245 0.003,-0.0855 1.02692,-0.74748 2.27531,-1.47123 4.80183,-2.78382 10.84913,-7.59709 13.93869,-11.09441 l 1.5074,-1.70636 v -2.79724 -2.79776 h -22.09271 c -12.15099,0 -22.09271,-0.0468 -22.09271,-0.10387 0,-0.0571 0.78338,-1.60496 1.74098,-3.43959 l 1.74098,-3.33571 h 25.24652 25.24652 v -2.91042 -2.91041 h -23.94479 c -13.28247,0 -23.94479,-0.10154 -23.94479,-0.22841 0,-0.12578 0.47625,-1.49666 1.05833,-3.04633 0.58208,-1.54968 1.05833,-2.99486 1.05833,-3.21117 0,-0.3277 -0.56912,-0.39326 -3.40909,-0.39326 z m 188.66652,1.85208 h 11.7383 11.73778 l -0.0698,7.87136 -0.0703,7.87135 -12.00185,0.0687 -12.00185,0.0693 0.15296,-0.99529 c 0.0841,-0.54719 0.23483,-4.12017 0.33383,-7.94009 z m -121.25875,0.52917 h 7.27966 7.27966 l -0.0698,8.6651 -0.0698,8.66511 -7.2099,0.0703 -7.20989,0.0708 v -8.7359 z m 29.36875,1.32292 v 12.7 12.7 h 3.04271 3.0427 v -1.19063 -1.19062 h 12.30313 12.30312 v 1.19062 1.19063 h 3.04271 3.04271 v -12.7 -12.7 h -18.38854 z m 157.69166,3.175 v 2.91041 2.91042 h 2.18902 2.18901 l 0.75655,2.05052 c 2.4037,6.51755 6.57038,13.244 11.21688,18.10742 1.0912,1.1421 1.93592,2.11418 1.87792,2.16008 -0.5541,0.43801 -3.88782,2.269 -6.45542,3.54552 -5.1742,2.57238 -13.07582,5.57418 -18.65312,7.08639 -0.9459,0.25647 -1.82347,0.5583 -1.95027,0.67076 -0.1269,0.11246 0.68729,1.46404 1.80919,3.00343 1.1218,1.53939 2.19595,2.7988 2.38745,2.7988 0.5213,0 5.30777,-1.68916 9.81077,-3.46233 4.8507,-1.91007 11.96926,-5.40712 15.71636,-7.72097 l 2.77089,-1.71101 1.99161,1.38286 c 5.7272,3.97544 12.24429,7.1438 20.22409,9.83196 1.8786,0.63284 3.45297,1.15032 3.49797,1.15032 0.1863,0 4.86069,-6.35061 4.86069,-6.60373 0,-0.15146 -0.21468,-0.27544 -0.47698,-0.27544 -1.5514,0 -10.5479,-2.59994 -14.5712,-4.21111 -2.058,-0.82414 -6.9975,-3.33087 -8.662,-4.3956 l -1.43041,-0.91467 1.98645,-1.88722 c 4.773,-4.53389 9.21435,-10.74096 12.80025,-17.88935 l 1.35805,-2.70681 v -2.91559 -2.91506 h -22.62187 z m -102.12916,0.79375 h 6.74687 6.74688 v 9.78958 9.78958 h -6.74688 -6.74687 v -9.78958 z m -49.47709,1.32291 h 12.30313 12.30312 v 6.21771 6.21771 h -12.30312 -12.30313 v -6.21771 z m 162.20302,3.70417 h 13.62191 13.62191 l -1.21491,2.41897 c -2.7756,5.52654 -5.83714,9.69355 -10.05624,13.68651 -1.4037,1.32839 -2.64487,2.41535 -2.75797,2.41535 -0.1132,0 -1.43909,-1.28723 -2.94659,-2.86081 -3.9299,-4.10219 -7.12581,-8.76174 -9.33431,-13.6095 z m -263.65109,12.43542 16.26206,0.0124 16.26206,0.0119 -1.5875,1.46245 c -3.67366,3.3835 -7.28327,5.91745 -12.33,8.6558 v -5.2e-4 c -1.25168,0.67917 -2.38562,1.23507 -2.51974,1.23507 -0.36397,0 -5.68885,-2.99989 -7.57939,-4.27003 -2.54878,-1.71239 -5.74623,-4.27182 -7.19439,-5.75882 z m 125.34946,5.20846 -2.55799,1.50534 c -1.40697,0.82805 -2.55798,1.5549 -2.55798,1.6154 0,0.0605 0.99117,1.63455 2.20297,3.49746 2.3375,3.5935 6.07136,9.7889 7.01921,11.64684 l 0.56896,1.11466 2.57865,-1.48828 c 1.41844,-0.81843 2.72092,-1.61783 2.8944,-1.77664 0.23951,-0.21926 -0.0693,-0.92562 -1.28261,-2.9347 -1.82174,-3.01652 -7.28913,-11.25601 -8.23516,-12.41062 z m -60.55651,0.87695 c -0.14312,0 -0.77941,1.22039 -1.41439,2.71198 -1.28738,3.02412 -4.00079,8.33265 -6.25336,12.2344 -0.81623,1.41379 -1.44665,2.6066 -1.40095,2.651 0.0457,0.0444 1.27382,0.61825 2.72903,1.27485 3.05755,1.37959 2.89704,1.33472 3.24942,0.90538 0.96483,-1.17557 8.52454,-16.66396 8.52454,-17.46509 0,-0.29468 -4.74188,-2.31252 -5.43429,-2.31252 z m 40.74738,0.57464 c -0.10421,-0.11761 -5.14319,2.10956 -5.28236,2.33474 -0.0606,0.0981 0.74908,1.83473 1.79885,3.85972 1.04974,2.025 2.72622,5.42122 3.72587,7.54682 l 1.81746,3.86488 2.87735,-1.34513 c 1.58231,-0.73987 2.87682,-1.45708 2.87682,-1.5937 0,-0.4428 -7.22245,-13.99977 -7.81399,-14.66733 z m -21.53305,0.63614 c -0.30166,10e-4 -0.82748,0.23162 -2.01642,0.77825 -1.15855,0.53266 -2.36802,1.07188 -2.68769,1.19786 -0.5662,0.22314 -0.52102,0.35399 1.74357,5.06946 1.27856,2.66231 2.89864,6.17387 3.60029,7.80314 l 1.27589,2.96209 0.81701,-0.34778 c 2.35989,-1.00402 4.80972,-2.11544 4.98471,-2.26188 0.18559,-0.15532 -6.49854,-13.85839 -7.27243,-14.90917 -0.13704,-0.18608 -0.23854,-0.29281 -0.44493,-0.29197 z" /><path
         id="path35"
         style="fill:#ff0000;stroke-width:0.50747"
         d="m 474.04755,258.61264 c -0.11789,5e-5 -0.21931,3.89934 -0.22531,8.6651 -0.008,6.82845 -0.10955,9.3661 -0.47904,11.9724 -1.59776,11.27038 -4.10867,19.76609 -8.3752,28.33884 -3.99198,8.02108 -7.61501,12.87125 -15.60887,20.89485 -6.34494,6.36855 -8.81379,8.63445 -27.38437,25.13231 -18.15687,16.13032 -22.48065,20.15614 -33.47961,31.17536 -9.49527,9.51276 -14.43788,14.88972 -19.72593,21.45864 -10.30763,12.80433 -16.89733,24.42135 -19.55849,34.48006 -1.2557,4.74636 -1.53998,7.11695 -1.52808,12.74806 0.0124,5.88505 0.33815,9.81985 1.27176,15.37219 5.90452,35.11526 32.47492,62.83406 66.80264,69.69032 3.33902,0.66691 5.15934,0.92292 10.18646,1.43144 1.83465,0.18559 13.3772,-0.0787 16.13958,-0.36949 7.03926,-0.74098 15.70485,-2.59505 22.35729,-4.78317 12.77311,-4.20132 25.97136,-11.57501 35.18959,-19.6603 1.0914,-0.95727 2.07982,-1.74366 2.19676,-1.74666 0.11693,-0.003 1.62703,0.77184 3.35535,1.72238 11.90677,6.5484 28.04138,12.08549 42.79688,14.68695 8.5379,1.50526 21.10441,2.22837 27.85101,1.60301 21.8822,-2.02828 45.72149,-19.84315 57.39339,-42.88937 6.8762,-13.577 9.36599,-27.45332 7.85689,-43.78855 -2.4104,-26.09136 -8.52405,-47.79012 -19.46445,-69.08622 -21.6164,-42.07725 -61.73203,-77.19489 -119.77976,-104.85561 -9.79375,-4.66689 -26.94652,-12.19288 -27.78849,-12.19254 z m 6.87038,12.55375 c 0.66391,-0.25477 17.61327,10.1799 29.69225,18.27951 21.43886,14.37594 36.65714,26.74364 51.46404,41.82432 14.0423,14.30195 24.75793,28.95597 33.93333,46.40492 7.0619,13.42959 14.05368,32.20944 18.07538,48.55001 5.3206,21.61838 1.63749,45.21724 -9.68571,62.05719 -7.0671,10.51032 -16.28065,17.18743 -26.69605,19.34662 -3.3227,0.68882 -12.01298,0.9532 -16.23208,0.49403 -5.7446,-0.62518 -15.48108,-2.74902 -16.28428,-3.55224 -0.2909,-0.29088 0.0369,-0.65247 1.9265,-2.12803 10.1063,-7.89157 16.74528,-17.59625 18.95078,-27.70116 1.5304,-7.01248 1.04427,-14.77103 -1.38493,-22.09684 -1.7972,-5.41977 -5.89522,-12.62542 -10.43502,-18.34875 -2.7025,-3.40705 -10.38081,-10.94261 -14.39551,-14.12782 -6.3248,-5.01804 -12.35329,-8.80292 -19.57916,-12.29227 -9.18377,-4.43482 -16.33886,-6.19918 -22.61981,-5.57796 -12.52803,1.2391 -27.24375,9.50357 -39.83684,22.37332 -4.52426,4.62363 -7.55896,8.3568 -10.94301,13.46119 -11.08106,16.71435 -13.78535,28.99019 -9.66762,43.88724 2.75805,9.97801 9.49927,21.04186 18.56889,30.47618 1.72685,1.79629 2.83448,3.14697 2.69338,3.28455 -0.4061,0.39596 -3.68596,1.54023 -7.20422,2.51355 -4.06686,1.12508 -8.66243,1.92972 -12.14344,2.12596 -1.42345,0.0803 -3.18326,0.18248 -3.91087,0.22738 -2.19969,0.13583 -9.52372,-0.30092 -12.66176,-0.75499 -20.8987,-3.02395 -35.94019,-13.41351 -44.37766,-30.65291 -4.70295,-9.60908 -6.96226,-19.37644 -7.68635,-33.23312 -0.6059,-11.59503 0.71293,-18.25845 5.57951,-28.19259 5.14639,-10.50528 13.66884,-21.80083 25.93691,-34.37671 10.94454,-11.21912 16.639,-16.44478 41.67601,-38.24728 19.94817,-17.37107 24.57029,-22.44146 29.58063,-32.44763 3.74426,-7.47767 6.22188,-15.92396 7.48016,-25.50025 0.81406,-6.19526 0.77612,-21.94781 -0.061,-25.33128 -0.0953,-0.38515 -0.008,-0.64594 0.24753,-0.74414 z m 18.70894,145.43144 c 3.65994,-0.0777 8.04619,0.25137 11.1156,0.89193 8.82882,1.8425 18.85709,6.35525 26.16739,11.77551 10.0001,7.41463 16.35478,16.8003 18.14928,26.8056 0.6685,3.72719 0.45501,8.95313 -0.49919,12.22406 -0.926,3.17427 -3.2155,7.76887 -5.2157,10.46654 -4.2397,5.71806 -10.4889,11.02752 -18.7694,15.94683 -2.5202,1.4972 -3.16363,1.74629 -3.16363,1.2237 0,-0.15219 0.53702,-1.38131 1.19372,-2.7311 1.9019,-3.9096 2.58288,-6.9337 2.60088,-11.54451 0.0118,-3.06498 -0.0983,-4.28871 -0.54725,-6.08542 -3.1876,-12.75664 -14.74834,-21.93304 -29.31966,-23.27196 -17.22668,-1.58291 -32.88771,8.9951 -35.98385,24.30446 -0.3482,1.7216 -0.41904,3.06441 -0.31419,5.95312 0.14188,3.90875 0.59311,6.14264 1.87688,9.28522 0.35645,0.87256 0.5799,1.69744 0.4961,1.83297 -0.19226,0.31109 -4.90319,-4.54723 -7.2931,-7.52151 -5.65551,-7.03837 -9.21313,-13.85234 -10.50788,-20.12487 -0.72855,-3.5295 -0.6159,-8.28821 0.26923,-11.35951 1.13924,-3.95302 4.73892,-10.52264 8.48062,-15.47761 9.17936,-12.15585 23.52685,-20.62204 37.92172,-22.37693 0.98288,-0.11982 2.12245,-0.19064 3.34243,-0.21652 z m 56.50766,138.47165 c -8.02721,0.50181 -16.38216,4.60815 -22.83065,11.35331 -12.81598,13.40577 -18.98832,36.73214 -15.00528,56.70713 0.35405,1.77563 0.88861,3.88312 1.18804,4.68344 0.98286,2.62693 3.74356,5.09861 6.58306,5.89421 2.2901,0.6417 4.87284,-0.0478 6.58254,-1.75751 0.4423,-0.44228 1.5393,-2.10022 2.4381,-3.68402 4.873,-8.58632 11.37595,-14.22066 18.16995,-15.74322 2.1985,-0.49269 6.3001,-0.5588 8.3354,-0.13436 3.7816,0.7886 7.11056,3.3936 9.19686,7.19698 1.1533,2.10242 1.70816,2.65814 2.96416,2.96674 1.5082,0.37056 3.39617,-1.21714 3.39617,-2.85616 0,-0.84103 -1.03312,-3.83267 -2.18332,-6.32209 -2.3,-4.97811 -6.10003,-9.33012 -9.72293,-11.13524 -2.9118,-1.45084 -4.89144,-1.87317 -8.06824,-1.72186 -5.529,0.26332 -10.36027,2.80585 -15.80317,8.31681 -3.0574,3.09569 -4.73351,5.21826 -8.00881,10.1415 -3.653,5.4907 -4.63538,6.37116 -5.80378,5.20278 -0.6509,-0.65086 -1.61199,-4.17741 -2.39159,-8.77466 -3.99683,-23.5701 4.79802,-41.67534 22.49372,-46.30621 2.1864,-0.57218 3.55257,-0.72727 8.05687,-0.91364 4.4157,-0.1827 5.76825,-0.33263 7.27605,-0.80719 4.2645,-1.34218 6.83402,-3.83885 6.84402,-6.64972 0.0111,-3.12854 -3.75303,-5.19457 -10.29343,-5.64875 -1.12686,-0.0783 -2.267,-0.08 -3.41374,-0.008 z m -104.30009,0.0227 c -3.32774,-0.14536 -6.65006,0.34988 -10.14822,1.47794 -15.6134,5.03489 -25.9375,23.37966 -29.01528,51.55706 -0.61427,5.62366 -0.69664,20.57451 -0.12403,22.54488 0.38751,1.33344 1.87826,3.2878 2.78795,3.65559 1.76964,0.71549 4.61917,-0.088 5.78465,-1.63143 1.26995,-1.68171 1.37965,-2.67223 0.62581,-5.65133 -0.94707,-3.74276 -1.66769,-7.94543 -2.03761,-11.8799 -0.43641,-4.64163 -0.19056,-12.61776 0.51057,-16.56281 3.43179,-19.3096 15.14267,-30.42708 32.05127,-30.42708 13.99338,0 24.75669,7.81148 29.21889,21.20491 1.61227,4.83929 2.02692,7.41161 2.1885,13.58986 0.16492,6.30596 -0.20285,10.23468 -1.51051,16.14682 -0.91729,4.14722 -1.11894,4.7133 -1.865,5.23586 -1.19777,0.83895 -1.95364,0.1047 -5.67459,-5.50974 -7.06219,-10.65594 -13.53632,-16.28542 -20.70003,-17.99994 -2.53658,-0.60709 -6.64237,-0.42415 -8.99221,0.40049 -3.28522,1.1529 -6.92777,4.13311 -9.27127,7.5861 -2.37919,3.50558 -4.99346,9.8177 -4.70514,11.36003 0.27014,1.44507 2.1167,2.65852 3.53622,2.32338 1.06135,-0.25058 1.83224,-1.0819 2.91042,-3.13883 1.85922,-3.54703 5.29206,-6.21433 8.99066,-6.98562 1.92641,-0.40169 6.17738,-0.35928 8.26203,0.0827 6.89451,1.46167 13.74924,7.44554 18.59576,16.23364 1.52014,2.75644 2.55217,3.90956 4.15169,4.63744 2.93003,1.33335 6.49559,0.32022 9.25473,-2.6293 1.7425,-1.86275 2.15985,-2.87977 3.13469,-7.63674 0.8124,-3.96427 1.10426,-7.27284 1.10226,-12.49123 -0.006,-12.3576 -2.9241,-23.78474 -8.68939,-34.02583 -5.08948,-9.04065 -12.34068,-15.89992 -20.19308,-19.10116 -3.51889,-1.43456 -6.85201,-2.22039 -10.17974,-2.36574 z m -83.97834,0.30695 c -9.55221,0.35821 -19.6559,1.85712 -27.74198,4.20647 -18.24265,5.30027 -29.36508,14.56274 -32.75975,27.28153 -0.59993,2.24776 -0.69357,3.14195 -0.71417,6.82026 -0.0152,2.70176 0.10367,4.75981 0.32866,5.68854 2.92355,12.06831 10.98935,21.30582 24.25382,27.77712 7.61248,3.71387 16.09527,6.04771 25.00312,6.87865 3.05612,0.28508 10.94344,0.13991 14.02292,-0.25787 3.49465,-0.45141 8.19409,-1.55396 9.70432,-2.27686 2.88325,-1.38011 5.37693,-5.07056 5.37693,-7.95714 0,-3.0047 -1.3829,-4.89802 -5.10873,-6.99595 -9.91157,-5.58095 -15.46704,-12.30148 -16.59124,-20.0701 -1.01429,-7.00907 1.47162,-12.65279 6.87917,-15.61868 2.56667,-1.40776 3.44371,-2.35127 3.44371,-3.70417 0,-0.911 -0.16222,-1.27326 -0.89968,-2.01073 -1.22069,-1.22068 -2.28721,-1.19209 -5.76864,0.154 -8.56002,3.30974 -13.78643,8.50419 -15.18771,15.0952 -1.28937,6.06459 1.49351,12.92271 7.83312,19.30373 3.05725,3.07722 5.79732,5.23057 10.86859,8.54263 6.94078,4.53305 6.97719,5.58759 0.24391,7.0559 -6.52921,1.4238 -9.17084,1.71789 -15.21354,1.69499 -6.39733,-0.0242 -9.98903,-0.53292 -14.56449,-2.06396 -5.67715,-1.8997 -9.59764,-4.24724 -13.22193,-7.91683 -2.50289,-2.53418 -3.90016,-4.44581 -5.34438,-7.31118 -2.58319,-5.12513 -3.75041,-12.15011 -3.00395,-18.08055 1.95244,-15.51144 13.36172,-25.6567 31.92932,-28.39155 2.28658,-0.33679 4.7023,-0.458 8.83563,-0.4439 6.2901,0.0215 10.69043,0.52387 16.14992,1.84433 4.02827,0.9743 5.64066,0.98043 7.08174,0.0264 1.47169,-0.97433 2.16834,-2.39202 2.16834,-4.41213 0,-1.41525 -0.094,-1.69543 -0.85989,-2.56781 -1.46773,-1.67168 -2.61546,-2.0008 -7.8698,-2.25722 -2.96632,-0.14476 -6.08927,-0.15248 -9.27334,-0.0331 z m 253.49305,0 c -3.18407,-0.1194 -6.30701,-0.11168 -9.27333,0.0331 -5.2543,0.25642 -6.40159,0.58554 -7.86929,2.25722 -0.7659,0.87238 -0.8599,1.15256 -0.8599,2.56781 0,2.02011 0.69665,3.4378 2.16835,4.41213 1.441,0.95407 3.05354,0.94794 7.08174,-0.0264 5.4595,-1.32046 9.85981,-1.82283 16.14991,-1.84433 11.4601,-0.0391 19.68857,2.10137 27.51667,7.15822 2.8768,1.85843 7.14279,6.13716 8.82789,8.85372 6.2809,10.12598 6.18604,23.87569 -0.23306,33.72353 -4.6977,7.20695 -12.65611,12.0581 -22.77691,13.8839 -2.527,0.45587 -4.24438,0.5717 -8.70438,0.5886 -6.0427,0.0229 -8.68434,-0.27119 -15.21354,-1.69499 -6.7333,-1.46831 -6.69689,-2.52285 0.24391,-7.0559 4.9688,-3.24514 7.77752,-5.44196 10.75542,-8.41292 13.2619,-13.23119 10.21058,-27.78081 -7.24142,-34.52864 -3.4814,-1.34609 -4.54794,-1.37468 -5.76864,-0.154 -0.7205,0.72056 -0.89969,1.10839 -0.89969,1.94872 0,1.36363 0.68073,2.21084 2.59623,3.23184 3.7755,2.01232 6.13619,4.71858 7.26519,8.32869 0.4707,1.50644 0.57831,2.4707 0.56431,5.03794 -0.0209,3.69793 -0.44519,5.5954 -1.95389,8.73125 -2.5335,5.26601 -8.22404,10.63417 -15.39544,14.52314 -3.955,2.14458 -5.34069,5.44384 -3.90209,9.28884 0.7136,1.90735 2.98394,4.38483 4.82554,5.26635 2.2223,1.06374 7.05189,2.01083 13.40849,2.6293 5.6477,0.54951 15.17351,-0.35265 21.96041,-2.07998 11.755,-2.99174 21.09407,-8.1328 28.19777,-15.52153 6.7599,-7.03116 10.18807,-15.32392 9.82317,-23.76341 -0.666,-15.40102 -12.43874,-27.0416 -33.55144,-33.17575 -8.08605,-2.34935 -18.18976,-3.84826 -27.74198,-4.20647 z" /></g></g></svg>
